<svg id="Layer_1" data-name="Layer 1" xmlns="http://www.w3.org/2000/svg" xmlns:xlink="http://www.w3.org/1999/xlink" viewBox="0 0 385 160"><defs><style>.cls-1{fill:url(#linear-gradient);}.cls-2{fill:url(#linear-gradient-2);}.cls-3{fill:url(#linear-gradient-3);}.cls-4{fill:url(#linear-gradient-4);}.cls-5{fill:url(#linear-gradient-5);}.cls-6{fill:url(#linear-gradient-6);}.cls-7{fill:url(#radial-gradient);}.cls-8{fill:#fff;}.cls-9{fill:url(#radial-gradient-2);}.cls-10{fill:#9bc117;}</style><linearGradient id="linear-gradient" x1="314.41" y1="293.65" x2="314.41" y2="453.65" gradientTransform="translate(0 -293.65)" gradientUnits="userSpaceOnUse"><stop offset="0.45" stop-color="#9bc117"/><stop offset="0.51" stop-color="#aed71a"/><stop offset="0.55" stop-color="#bde631"/></linearGradient><linearGradient id="linear-gradient-2" x1="131.77" y1="293.65" x2="131.77" y2="453.65" xlink:href="#linear-gradient"/><linearGradient id="linear-gradient-3" x1="165.46" y1="293.65" x2="165.46" y2="453.65" gradientTransform="translate(0 -293.65)" gradientUnits="userSpaceOnUse"><stop offset="0.44" stop-color="#9bc117"/><stop offset="0.51" stop-color="#aed71a"/><stop offset="0.56" stop-color="#bde631"/></linearGradient><linearGradient id="linear-gradient-4" x1="24.96" y1="293.65" x2="24.96" y2="453.65" xlink:href="#linear-gradient"/><linearGradient id="linear-gradient-5" x1="78.02" y1="293.65" x2="78.02" y2="453.65" xlink:href="#linear-gradient"/><linearGradient id="linear-gradient-6" x1="200.59" y1="293.65" x2="200.59" y2="453.65" xlink:href="#linear-gradient"/><radialGradient id="radial-gradient" cx="253.83" cy="356.32" r="192.5" gradientTransform="translate(0 -293.65)" gradientUnits="userSpaceOnUse"><stop offset="0" stop-color="#0296f8"/><stop offset="0.23" stop-color="#0032c8"/></radialGradient><radialGradient id="radial-gradient-2" cx="252.17" cy="366.98" r="142.51" gradientTransform="translate(0 -293.65)" gradientUnits="userSpaceOnUse"><stop offset="0" stop-color="#0296f8"/><stop offset="0.23" stop-color="#0032c8"/></radialGradient></defs><title>Artboard 1</title><path id="Composite_Path" data-name="Composite Path" class="cls-1" d="M299.61,94.53c.26-7.62,2.52-11.82,2.52-11.82h23.94s2.26,4.2,2.52,11.82v.69c-.26,7.61-2.52,11.82-2.52,11.82H302.13s-2.26-4.2-2.52-11.82ZM295.44,117h39.84s4-7.64,4.46-21.48V94.26c-.45-13.85-4.46-21.48-4.46-21.48H313.22l-23.89,12.4c-.08.5-.16,1-.23,1.55Z"/><path id="Composite_Path-2" data-name="Composite Path-2" class="cls-2" d="M117.28,94.53c.26-7.62,2.52-11.82,2.52-11.82h23.94s2.26,4.2,2.52,11.82v.69c-.26,7.61-2.52,11.82-2.52,11.82H119.8s-2.26-4.2-2.52-11.82v-.69Zm-11.15-.28v1.26c.46,13.85,4.46,21.49,4.46,21.49h42.35s4-7.64,4.46-21.48V94.26c-.46-13.85-4.46-21.48-4.46-21.48H110.59s-4,7.63-4.46,21.48Z"/><path id="Path" class="cls-3" d="M159.88,72.77,171,67.24V117H159.88Z"/><path id="Path-2" class="cls-4" d="M38.76,72.77V102L12.26,72.77H0V117H11.15V87.28L37.9,117h12V72.77Z"/><path id="Path-3" class="cls-5" d="M52.39,94.25v1.26c.45,13.85,4.46,21.49,4.46,21.49H99.2s4-7.64,4.46-21.48V94.26c-.06-1.73-.17-3.36-.32-4.9H82.48l-7.8,11.06H92A23.8,23.8,0,0,1,90,107H66.05s-2.26-4.2-2.52-11.82v-.7c.26-7.62,2.52-11.82,2.52-11.82h36.29a41.11,41.11,0,0,0-3.14-10H56.85S52.84,80.4,52.39,94.25Z"/><path id="Composite_Path-3" data-name="Composite Path-3" class="cls-6" d="M213.13,107H179a41.13,41.13,0,0,0,3.14,10h24.28ZM176.6,94.25v1.26c.06,1.73.17,3.36.32,4.9h40.66l7-11.06H188.28a23.78,23.78,0,0,1,2-6.63H224l-9.22-10H181.07S177.06,80.4,176.6,94.25Z"/><path id="Path-16" class="cls-7" d="M299.44,160l-15.1-76.85L385,30.24l-110.89,12L266.73,0,242.4,45.67l-43.5,4.66Z"/><path id="Path-17" class="cls-8" d="M204.5,56.43l78.81,86L265.47,44.09c-1.77-10.43-7.55-2.52-7.55-2.52L235.28,71.81,206.34,56.69Z"/><path id="Composite_Path-6" data-name="Composite Path-6" class="cls-9" d="M254.15,70.13V88.19l-8.48-4.85Zm-42.52-6.21,20.58,22.22-20.84,31H224L239.1,93.57l38,41L260.46,46,237.65,78Z"/><path id="Path-18" class="cls-10" d="M131.62,61s-3.09,5-6.58,6.6-8.23,3.3-8.23,3.3h29.62s-4.73-1.67-8.23-3.3S131.62,61,131.62,61Z"/></svg>